<?xml version="1.0" encoding="UTF-8" standalone="no"?>
<!DOCTYPE svg PUBLIC "-//W3C//DTD SVG 1.1//EN"
 "http://www.w3.org/Graphics/SVG/1.1/DTD/svg11.dtd">
<!-- Generated by graphviz version 2.40.1 (20161225.0304)
 -->
<!-- Title: dependencies Pages: 1 -->
<svg width="1256pt" height="284pt"
 viewBox="0.00 0.00 1256.00 284.00" xmlns="http://www.w3.org/2000/svg" xmlns:xlink="http://www.w3.org/1999/xlink">
<g id="graph0" class="graph" transform="scale(1 1) rotate(0) translate(4 280)">
<title>dependencies</title>
<polygon fill="#ffffff" stroke="transparent" points="-4,4 -4,-280 1252,-280 1252,4 -4,4"/>
<text text-anchor="start" x="603.0091" y="-42.4" font-family="sans-serif" font-weight="bold" font-size="14.00" fill="#000000">Legend</text>
<polygon fill="#ffffb3" stroke="transparent" points="390,-10 390,-30 410,-30 410,-10 390,-10"/>
<text text-anchor="start" x="413.629" y="-15.4" font-family="sans-serif" font-size="14.00" fill="#000000"> &#160;Declarations</text>
<polygon fill="#8dd3c7" stroke="transparent" points="503,-10 503,-30 523,-30 523,-10 503,-10"/>
<text text-anchor="start" x="526.7251" y="-15.4" font-family="sans-serif" font-size="14.00" fill="#000000"> &#160;Module</text>
<polygon fill="#80b1d3" stroke="transparent" points="589,-10 589,-30 609,-30 609,-10 589,-10"/>
<text text-anchor="start" x="612.7812" y="-15.4" font-family="sans-serif" font-size="14.00" fill="#000000"> &#160;Bootstrap</text>
<polygon fill="#fdb462" stroke="transparent" points="686,-10 686,-30 706,-30 706,-10 686,-10"/>
<text text-anchor="start" x="709.6732" y="-15.4" font-family="sans-serif" font-size="14.00" fill="#000000"> &#160;Providers</text>
<polygon fill="#fb8072" stroke="transparent" points="782,-10 782,-30 802,-30 802,-10 782,-10"/>
<text text-anchor="start" x="805.7258" y="-15.4" font-family="sans-serif" font-size="14.00" fill="#000000"> &#160;Exports</text>
<g id="clust1" class="cluster">
<title>cluster_AppModule</title>
<polygon fill="none" stroke="#000000" stroke-dasharray="1,5" points="8,-70 8,-268 1240,-268 1240,-70 8,-70"/>
</g>
<g id="clust2" class="cluster">
<title>cluster_AppModule_declarations</title>
<polygon fill="none" stroke="#000000" points="293,-78 293,-130 1232,-130 1232,-78 293,-78"/>
</g>
<g id="clust10" class="cluster">
<title>cluster_AppModule_imports</title>
<polygon fill="none" stroke="#000000" points="16,-78 16,-130 285,-130 285,-78 16,-78"/>
</g>
<g id="clust12" class="cluster">
<title>cluster_AppModule_bootstrap</title>
<polygon fill="none" stroke="#000000" points="555,-208 555,-260 679,-260 679,-208 555,-208"/>
</g>
<!-- AddVclipComponent -->
<g id="node1" class="node">
<title>AddVclipComponent</title>
<polygon fill="#ffffb3" stroke="#000000" points="1224.0422,-122 1087.9578,-122 1087.9578,-86 1224.0422,-86 1224.0422,-122"/>
<text text-anchor="middle" x="1156" y="-99.8" font-family="Times,serif" font-size="14.00" fill="#000000">AddVclipComponent</text>
</g>
<!-- AppModule -->
<g id="node8" class="node">
<title>AppModule</title>
<polygon fill="#8dd3c7" stroke="#000000" points="658.6571,-187 655.6571,-191 634.6571,-191 631.6571,-187 575.3429,-187 575.3429,-151 658.6571,-151 658.6571,-187"/>
<text text-anchor="middle" x="617" y="-164.8" font-family="Times,serif" font-size="14.00" fill="#000000">AppModule</text>
</g>
<!-- AddVclipComponent&#45;&gt;AppModule -->
<g id="edge1" class="edge">
<title>AddVclipComponent&#45;&gt;AppModule</title>
<path fill="none" stroke="#000000" d="M1156,-122.0109C1156,-144.4852 1156,-180 1156,-180 1156,-180 668.8459,-180 668.8459,-180"/>
<polygon fill="#000000" stroke="#000000" points="668.846,-176.5001 658.8459,-180 668.8459,-183.5001 668.846,-176.5001"/>
</g>
<!-- AppComponent -->
<g id="node2" class="node">
<title>AppComponent</title>
<polygon fill="#ffffb3" stroke="#000000" points="1069.9399,-122 964.0601,-122 964.0601,-86 1069.9399,-86 1069.9399,-122"/>
<text text-anchor="middle" x="1017" y="-99.8" font-family="Times,serif" font-size="14.00" fill="#000000">AppComponent</text>
</g>
<!-- AppComponent&#45;&gt;AppModule -->
<g id="edge2" class="edge">
<title>AppComponent&#45;&gt;AppModule</title>
<path fill="none" stroke="#000000" d="M1017,-122.1289C1017,-142.5724 1017,-173 1017,-173 1017,-173 668.675,-173 668.675,-173"/>
<polygon fill="#000000" stroke="#000000" points="668.6751,-169.5001 658.675,-173 668.675,-176.5001 668.6751,-169.5001"/>
</g>
<!-- ConfigComponent -->
<g id="node3" class="node">
<title>ConfigComponent</title>
<polygon fill="#ffffb3" stroke="#000000" points="946.2204,-122 825.7796,-122 825.7796,-86 946.2204,-86 946.2204,-122"/>
<text text-anchor="middle" x="886" y="-99.8" font-family="Times,serif" font-size="14.00" fill="#000000">ConfigComponent</text>
</g>
<!-- ConfigComponent&#45;&gt;AppModule -->
<g id="edge3" class="edge">
<title>ConfigComponent&#45;&gt;AppModule</title>
<path fill="none" stroke="#000000" d="M886,-122.2667C886,-140.5552 886,-166 886,-166 886,-166 668.7361,-166 668.7361,-166"/>
<polygon fill="#000000" stroke="#000000" points="668.7361,-162.5001 658.7361,-166 668.7361,-169.5001 668.7361,-162.5001"/>
</g>
<!-- HeaderComponent -->
<g id="node4" class="node">
<title>HeaderComponent</title>
<polygon fill="#ffffb3" stroke="#000000" points="807.7437,-122 686.2563,-122 686.2563,-86 807.7437,-86 807.7437,-122"/>
<text text-anchor="middle" x="747" y="-99.8" font-family="Times,serif" font-size="14.00" fill="#000000">HeaderComponent</text>
</g>
<!-- HeaderComponent&#45;&gt;AppModule -->
<g id="edge4" class="edge">
<title>HeaderComponent&#45;&gt;AppModule</title>
<path fill="none" stroke="#000000" d="M747,-122.0091C747,-138.0494 747,-159 747,-159 747,-159 668.8484,-159 668.8484,-159"/>
<polygon fill="#000000" stroke="#000000" points="668.8484,-155.5001 658.8484,-159 668.8484,-162.5001 668.8484,-155.5001"/>
</g>
<!-- ListComponent -->
<g id="node5" class="node">
<title>ListComponent</title>
<polygon fill="#ffffb3" stroke="#000000" points="668.6109,-122 565.3891,-122 565.3891,-86 668.6109,-86 668.6109,-122"/>
<text text-anchor="middle" x="617" y="-99.8" font-family="Times,serif" font-size="14.00" fill="#000000">ListComponent</text>
</g>
<!-- ListComponent&#45;&gt;AppModule -->
<g id="edge5" class="edge">
<title>ListComponent&#45;&gt;AppModule</title>
<path fill="none" stroke="#000000" d="M617,-122.1061C617,-122.1061 617,-140.991 617,-140.991"/>
<polygon fill="#000000" stroke="#000000" points="613.5001,-140.9909 617,-150.991 620.5001,-140.991 613.5001,-140.9909"/>
</g>
<!-- ShowComponent -->
<g id="node6" class="node">
<title>ShowComponent</title>
<polygon fill="#ffffb3" stroke="#000000" points="547.7218,-122 434.2782,-122 434.2782,-86 547.7218,-86 547.7218,-122"/>
<text text-anchor="middle" x="491" y="-99.8" font-family="Times,serif" font-size="14.00" fill="#000000">ShowComponent</text>
</g>
<!-- ShowComponent&#45;&gt;AppModule -->
<g id="edge6" class="edge">
<title>ShowComponent&#45;&gt;AppModule</title>
<path fill="none" stroke="#000000" d="M491,-122.0091C491,-138.0494 491,-159 491,-159 491,-159 565.0438,-159 565.0438,-159"/>
<polygon fill="#000000" stroke="#000000" points="565.0439,-162.5001 575.0438,-159 565.0438,-155.5001 565.0439,-162.5001"/>
</g>
<!-- VideoComponent -->
<g id="node7" class="node">
<title>VideoComponent</title>
<polygon fill="#ffffb3" stroke="#000000" points="416.5451,-122 301.4549,-122 301.4549,-86 416.5451,-86 416.5451,-122"/>
<text text-anchor="middle" x="359" y="-99.8" font-family="Times,serif" font-size="14.00" fill="#000000">VideoComponent</text>
</g>
<!-- VideoComponent&#45;&gt;AppModule -->
<g id="edge7" class="edge">
<title>VideoComponent&#45;&gt;AppModule</title>
<path fill="none" stroke="#000000" d="M359,-122.2667C359,-140.5552 359,-166 359,-166 359,-166 565.2611,-166 565.2611,-166"/>
<polygon fill="#000000" stroke="#000000" points="565.2611,-169.5001 575.2611,-166 565.2611,-162.5001 565.2611,-169.5001"/>
</g>
<!-- AppComponent  -->
<g id="node11" class="node">
<title>AppComponent </title>
<polygon fill="#80b1d3" stroke="#000000" points="671.439,-252 562.561,-252 562.561,-216 671.439,-216 671.439,-252"/>
<text text-anchor="middle" x="617" y="-229.8" font-family="Times,serif" font-size="14.00" fill="#000000">AppComponent </text>
</g>
<!-- AppModule&#45;&gt;AppComponent  -->
<g id="edge10" class="edge">
<title>AppModule&#45;&gt;AppComponent </title>
<path fill="none" stroke="#000000" stroke-dasharray="1,5" d="M617,-187.1061C617,-187.1061 617,-205.991 617,-205.991"/>
<polygon fill="#000000" stroke="#000000" points="613.5001,-205.9909 617,-215.991 620.5001,-205.991 613.5001,-205.9909"/>
</g>
<!-- AppRoutingModule -->
<g id="node9" class="node">
<title>AppRoutingModule</title>
<polygon fill="#8dd3c7" stroke="#000000" points="277.2744,-122 274.2744,-126 253.2744,-126 250.2744,-122 148.7256,-122 148.7256,-86 277.2744,-86 277.2744,-122"/>
<text text-anchor="middle" x="213" y="-99.8" font-family="Times,serif" font-size="14.00" fill="#000000">AppRoutingModule</text>
</g>
<!-- AppRoutingModule&#45;&gt;AppModule -->
<g id="edge8" class="edge">
<title>AppRoutingModule&#45;&gt;AppModule</title>
<path fill="none" stroke="#000000" d="M213,-122.1289C213,-142.5724 213,-173 213,-173 213,-173 565.2866,-173 565.2866,-173"/>
<polygon fill="#000000" stroke="#000000" points="565.2866,-176.5001 575.2866,-173 565.2865,-169.5001 565.2866,-176.5001"/>
</g>
<!-- MaterialModule -->
<g id="node10" class="node">
<title>MaterialModule</title>
<polygon fill="#8dd3c7" stroke="#000000" points="130.4706,-122 127.4706,-126 106.4706,-126 103.4706,-122 23.5294,-122 23.5294,-86 130.4706,-86 130.4706,-122"/>
<text text-anchor="middle" x="77" y="-99.8" font-family="Times,serif" font-size="14.00" fill="#000000">MaterialModule</text>
</g>
<!-- MaterialModule&#45;&gt;AppModule -->
<g id="edge9" class="edge">
<title>MaterialModule&#45;&gt;AppModule</title>
<path fill="none" stroke="#000000" d="M77,-122.0109C77,-144.4852 77,-180 77,-180 77,-180 565.0764,-180 565.0764,-180"/>
<polygon fill="#000000" stroke="#000000" points="565.0765,-183.5001 575.0764,-180 565.0764,-176.5001 565.0765,-183.5001"/>
</g>
</g>
</svg>
