<?xml version="1.0" encoding="UTF-8" standalone="no"?>
<!DOCTYPE svg PUBLIC "-//W3C//DTD SVG 1.1//EN"
 "http://www.w3.org/Graphics/SVG/1.1/DTD/svg11.dtd">
<!-- Generated by graphviz version 2.40.1 (20161225.0304)
 -->
<!-- Title: dependencies Pages: 1 -->
<svg width="1408pt" height="284pt"
 viewBox="0.00 0.00 1408.00 284.00" xmlns="http://www.w3.org/2000/svg" xmlns:xlink="http://www.w3.org/1999/xlink">
<g id="graph0" class="graph" transform="scale(1 1) rotate(0) translate(4 280)">
<title>dependencies</title>
<polygon fill="#ffffff" stroke="transparent" points="-4,4 -4,-280 1404,-280 1404,4 -4,4"/>
<text text-anchor="start" x="679.0091" y="-42.4" font-family="sans-serif" font-weight="bold" font-size="14.00" fill="#000000">Legend</text>
<polygon fill="#ffffb3" stroke="transparent" points="466,-10 466,-30 486,-30 486,-10 466,-10"/>
<text text-anchor="start" x="489.629" y="-15.4" font-family="sans-serif" font-size="14.00" fill="#000000"> &#160;Declarations</text>
<polygon fill="#8dd3c7" stroke="transparent" points="579,-10 579,-30 599,-30 599,-10 579,-10"/>
<text text-anchor="start" x="602.7251" y="-15.4" font-family="sans-serif" font-size="14.00" fill="#000000"> &#160;Module</text>
<polygon fill="#80b1d3" stroke="transparent" points="665,-10 665,-30 685,-30 685,-10 665,-10"/>
<text text-anchor="start" x="688.7812" y="-15.4" font-family="sans-serif" font-size="14.00" fill="#000000"> &#160;Bootstrap</text>
<polygon fill="#fdb462" stroke="transparent" points="762,-10 762,-30 782,-30 782,-10 762,-10"/>
<text text-anchor="start" x="785.6732" y="-15.4" font-family="sans-serif" font-size="14.00" fill="#000000"> &#160;Providers</text>
<polygon fill="#fb8072" stroke="transparent" points="858,-10 858,-30 878,-30 878,-10 858,-10"/>
<text text-anchor="start" x="881.7258" y="-15.4" font-family="sans-serif" font-size="14.00" fill="#000000"> &#160;Exports</text>
<g id="clust1" class="cluster">
<title>cluster_AppModule</title>
<polygon fill="none" stroke="#000000" stroke-dasharray="1,5" points="8,-70 8,-268 1392,-268 1392,-70 8,-70"/>
</g>
<g id="clust2" class="cluster">
<title>cluster_AppModule_declarations</title>
<polygon fill="none" stroke="#000000" points="445,-78 445,-130 1384,-130 1384,-78 445,-78"/>
</g>
<g id="clust10" class="cluster">
<title>cluster_AppModule_imports</title>
<polygon fill="none" stroke="#000000" points="168,-78 168,-130 437,-130 437,-78 168,-78"/>
</g>
<g id="clust12" class="cluster">
<title>cluster_AppModule_bootstrap</title>
<polygon fill="none" stroke="#000000" points="644,-208 644,-260 768,-260 768,-208 644,-208"/>
</g>
<g id="clust13" class="cluster">
<title>cluster_AppModule_providers</title>
<polygon fill="none" stroke="#000000" points="16,-78 16,-130 160,-130 160,-78 16,-78"/>
</g>
<!-- AddVclipComponent -->
<g id="node1" class="node">
<title>AddVclipComponent</title>
<polygon fill="#ffffb3" stroke="#000000" points="1376.0422,-122 1239.9578,-122 1239.9578,-86 1376.0422,-86 1376.0422,-122"/>
<text text-anchor="middle" x="1308" y="-99.8" font-family="Times,serif" font-size="14.00" fill="#000000">AddVclipComponent</text>
</g>
<!-- AppModule -->
<g id="node8" class="node">
<title>AppModule</title>
<polygon fill="#8dd3c7" stroke="#000000" points="747.6571,-187 744.6571,-191 723.6571,-191 720.6571,-187 664.3429,-187 664.3429,-151 747.6571,-151 747.6571,-187"/>
<text text-anchor="middle" x="706" y="-164.8" font-family="Times,serif" font-size="14.00" fill="#000000">AppModule</text>
</g>
<!-- AddVclipComponent&#45;&gt;AppModule -->
<g id="edge1" class="edge">
<title>AddVclipComponent&#45;&gt;AppModule</title>
<path fill="none" stroke="#000000" d="M1308,-122.0109C1308,-144.4852 1308,-180 1308,-180 1308,-180 757.8535,-180 757.8535,-180"/>
<polygon fill="#000000" stroke="#000000" points="757.8536,-176.5001 747.8535,-180 757.8535,-183.5001 757.8536,-176.5001"/>
</g>
<!-- AppComponent -->
<g id="node2" class="node">
<title>AppComponent</title>
<polygon fill="#ffffb3" stroke="#000000" points="1221.9399,-122 1116.0601,-122 1116.0601,-86 1221.9399,-86 1221.9399,-122"/>
<text text-anchor="middle" x="1169" y="-99.8" font-family="Times,serif" font-size="14.00" fill="#000000">AppComponent</text>
</g>
<!-- AppComponent&#45;&gt;AppModule -->
<g id="edge2" class="edge">
<title>AppComponent&#45;&gt;AppModule</title>
<path fill="none" stroke="#000000" d="M1169,-122.1289C1169,-142.5724 1169,-173 1169,-173 1169,-173 757.9048,-173 757.9048,-173"/>
<polygon fill="#000000" stroke="#000000" points="757.9048,-169.5001 747.9048,-173 757.9047,-176.5001 757.9048,-169.5001"/>
</g>
<!-- ConfigComponent -->
<g id="node3" class="node">
<title>ConfigComponent</title>
<polygon fill="#ffffb3" stroke="#000000" points="1098.2204,-122 977.7796,-122 977.7796,-86 1098.2204,-86 1098.2204,-122"/>
<text text-anchor="middle" x="1038" y="-99.8" font-family="Times,serif" font-size="14.00" fill="#000000">ConfigComponent</text>
</g>
<!-- ConfigComponent&#45;&gt;AppModule -->
<g id="edge3" class="edge">
<title>ConfigComponent&#45;&gt;AppModule</title>
<path fill="none" stroke="#000000" d="M1038,-122.2667C1038,-140.5552 1038,-166 1038,-166 1038,-166 757.7119,-166 757.7119,-166"/>
<polygon fill="#000000" stroke="#000000" points="757.7119,-162.5001 747.7119,-166 757.7118,-169.5001 757.7119,-162.5001"/>
</g>
<!-- HeaderComponent -->
<g id="node4" class="node">
<title>HeaderComponent</title>
<polygon fill="#ffffb3" stroke="#000000" points="959.7437,-122 838.2563,-122 838.2563,-86 959.7437,-86 959.7437,-122"/>
<text text-anchor="middle" x="899" y="-99.8" font-family="Times,serif" font-size="14.00" fill="#000000">HeaderComponent</text>
</g>
<!-- HeaderComponent&#45;&gt;AppModule -->
<g id="edge4" class="edge">
<title>HeaderComponent&#45;&gt;AppModule</title>
<path fill="none" stroke="#000000" d="M899,-122.0091C899,-138.0494 899,-159 899,-159 899,-159 757.8781,-159 757.8781,-159"/>
<polygon fill="#000000" stroke="#000000" points="757.8782,-155.5001 747.8781,-159 757.8781,-162.5001 757.8782,-155.5001"/>
</g>
<!-- ListComponent -->
<g id="node5" class="node">
<title>ListComponent</title>
<polygon fill="#ffffb3" stroke="#000000" points="820.6109,-122 717.3891,-122 717.3891,-86 820.6109,-86 820.6109,-122"/>
<text text-anchor="middle" x="769" y="-99.8" font-family="Times,serif" font-size="14.00" fill="#000000">ListComponent</text>
</g>
<!-- ListComponent&#45;&gt;AppModule -->
<g id="edge5" class="edge">
<title>ListComponent&#45;&gt;AppModule</title>
<path fill="none" stroke="#000000" d="M732.6364,-122.1061C732.6364,-122.1061 732.6364,-140.991 732.6364,-140.991"/>
<polygon fill="#000000" stroke="#000000" points="729.1365,-140.9909 732.6364,-150.991 736.1365,-140.991 729.1365,-140.9909"/>
</g>
<!-- ShowComponent -->
<g id="node6" class="node">
<title>ShowComponent</title>
<polygon fill="#ffffb3" stroke="#000000" points="699.7218,-122 586.2782,-122 586.2782,-86 699.7218,-86 699.7218,-122"/>
<text text-anchor="middle" x="643" y="-99.8" font-family="Times,serif" font-size="14.00" fill="#000000">ShowComponent</text>
</g>
<!-- ShowComponent&#45;&gt;AppModule -->
<g id="edge6" class="edge">
<title>ShowComponent&#45;&gt;AppModule</title>
<path fill="none" stroke="#000000" d="M681.8913,-122.1061C681.8913,-122.1061 681.8913,-140.991 681.8913,-140.991"/>
<polygon fill="#000000" stroke="#000000" points="678.3914,-140.9909 681.8913,-150.991 685.3914,-140.991 678.3914,-140.9909"/>
</g>
<!-- VideoComponent -->
<g id="node7" class="node">
<title>VideoComponent</title>
<polygon fill="#ffffb3" stroke="#000000" points="568.5451,-122 453.4549,-122 453.4549,-86 568.5451,-86 568.5451,-122"/>
<text text-anchor="middle" x="511" y="-99.8" font-family="Times,serif" font-size="14.00" fill="#000000">VideoComponent</text>
</g>
<!-- VideoComponent&#45;&gt;AppModule -->
<g id="edge7" class="edge">
<title>VideoComponent&#45;&gt;AppModule</title>
<path fill="none" stroke="#000000" d="M511,-122.0091C511,-138.0494 511,-159 511,-159 511,-159 654.1676,-159 654.1676,-159"/>
<polygon fill="#000000" stroke="#000000" points="654.1676,-162.5001 664.1676,-159 654.1676,-155.5001 654.1676,-162.5001"/>
</g>
<!-- AppComponent  -->
<g id="node11" class="node">
<title>AppComponent </title>
<polygon fill="#80b1d3" stroke="#000000" points="760.439,-252 651.561,-252 651.561,-216 760.439,-216 760.439,-252"/>
<text text-anchor="middle" x="706" y="-229.8" font-family="Times,serif" font-size="14.00" fill="#000000">AppComponent </text>
</g>
<!-- AppModule&#45;&gt;AppComponent  -->
<g id="edge10" class="edge">
<title>AppModule&#45;&gt;AppComponent </title>
<path fill="none" stroke="#000000" stroke-dasharray="1,5" d="M706,-187.1061C706,-187.1061 706,-205.991 706,-205.991"/>
<polygon fill="#000000" stroke="#000000" points="702.5001,-205.9909 706,-215.991 709.5001,-205.991 702.5001,-205.9909"/>
</g>
<!-- AppRoutingModule -->
<g id="node9" class="node">
<title>AppRoutingModule</title>
<polygon fill="#8dd3c7" stroke="#000000" points="429.2744,-122 426.2744,-126 405.2744,-126 402.2744,-122 300.7256,-122 300.7256,-86 429.2744,-86 429.2744,-122"/>
<text text-anchor="middle" x="365" y="-99.8" font-family="Times,serif" font-size="14.00" fill="#000000">AppRoutingModule</text>
</g>
<!-- AppRoutingModule&#45;&gt;AppModule -->
<g id="edge8" class="edge">
<title>AppRoutingModule&#45;&gt;AppModule</title>
<path fill="none" stroke="#000000" d="M365,-122.2667C365,-140.5552 365,-166 365,-166 365,-166 654.1867,-166 654.1867,-166"/>
<polygon fill="#000000" stroke="#000000" points="654.1867,-169.5001 664.1867,-166 654.1867,-162.5001 654.1867,-169.5001"/>
</g>
<!-- MaterialModule -->
<g id="node10" class="node">
<title>MaterialModule</title>
<polygon fill="#8dd3c7" stroke="#000000" points="282.4706,-122 279.4706,-126 258.4706,-126 255.4706,-122 175.5294,-122 175.5294,-86 282.4706,-86 282.4706,-122"/>
<text text-anchor="middle" x="229" y="-99.8" font-family="Times,serif" font-size="14.00" fill="#000000">MaterialModule</text>
</g>
<!-- MaterialModule&#45;&gt;AppModule -->
<g id="edge9" class="edge">
<title>MaterialModule&#45;&gt;AppModule</title>
<path fill="none" stroke="#000000" d="M229,-122.1289C229,-142.5724 229,-173 229,-173 229,-173 654.0875,-173 654.0875,-173"/>
<polygon fill="#000000" stroke="#000000" points="654.0875,-176.5001 664.0875,-173 654.0875,-169.5001 654.0875,-176.5001"/>
</g>
<!-- VideoService -->
<g id="node12" class="node">
<title>VideoService</title>
<ellipse fill="#fdb462" stroke="#000000" cx="88" cy="-104" rx="63.6813" ry="18"/>
<text text-anchor="middle" x="88" y="-99.8" font-family="Times,serif" font-size="14.00" fill="#000000">VideoService</text>
</g>
<!-- VideoService&#45;&gt;AppModule -->
<g id="edge11" class="edge">
<title>VideoService&#45;&gt;AppModule</title>
<path fill="none" stroke="#000000" d="M88,-122.0109C88,-144.4852 88,-180 88,-180 88,-180 654.0082,-180 654.0082,-180"/>
<polygon fill="#000000" stroke="#000000" points="654.0082,-183.5001 664.0082,-180 654.0082,-176.5001 654.0082,-183.5001"/>
</g>
</g>
</svg>
